# xmcd CD database file
#
# Track frame offsets:
#	150
#	16251
#	36219
#	55007
#	67011
#	79295
#	89015
#	105097
#	117306
#	136819
#	147281
#	159345
#	178458
#	191295
#	211625
#	224557
#	242309
#	260169
#	273980
#	286068
#	298467
#	313262
#	325481
#
# Disc length: 4534 seconds
#
# Revision: 1
# Processed by: cddbd v1.5.2PL0 Copyright (c) Steve Scherf et al.
# Submitted via: CDex 1.79
#
DISCID=5e11b417
DTITLE=Various Artist - Now Country - Disc 2
DYEAR=2017
DGENRE=Country
TTITLE0=Shania Twain - You're Still The One
TTITLE1=LeAnn Rimes - How Do I Live
TTITLE2=Julie Newton - Angel Of The Morning
TTITLE3=Dolly Parton - Jolene
TTITLE4=Johnny Cash - I Walk The Line
TTITLE5=Hank Williams Jr. - Your Cheatin' Heart
TTITLE6=Willie Nelson - Always On My Mind
TTITLE7=Glen Campbell - By The Time I Get To Phoenix
TTITLE8=Kenny Rogers - Coward Of The County
TTITLE9=Kris Kristofferson - Help Me Make It Through The Night
TTITLE10=Bob Dylan - I'll Be Your Baby Tonight
TTITLE11=Bobbie Gentry - Ode To Billie Joe
TTITLE12=Elvis Presley - Burning Love
TTITLE13=Janis Joplin - Me And Bobby McGee
TTITLE14=Lynn Anderson - Rose Garden
TTITLE15=Nanci Griffith - Lone Star State Of Mind
TTITLE16=Miranda Lambert - The House That Built Me
TTITLE17=The Highwaymen - Highwayman
TTITLE18=Glen Campbell - Galveston
TTITLE19=Jim Reeves - I Love You Because
TTITLE20=George Jones - He Stopped Loving Her Today
TTITLE21=Charlie Rich - The Most Beautiful Girl
TTITLE22=Dr. Hook - A Little Bit More
EXTD=YEAR: 2017
EXTT0=
EXTT1=
EXTT2=
EXTT3=
EXTT4=
EXTT5=
EXTT6=
EXTT7=
EXTT8=
EXTT9=
EXTT10=
EXTT11=
EXTT12=
EXTT13=
EXTT14=
EXTT15=
EXTT16=
EXTT17=
EXTT18=
EXTT19=
EXTT20=
EXTT21=
EXTT22=
PLAYORDER=
